<svg height="512pt" viewBox="0 0 512 512" width="512pt" xmlns="http://www.w3.org/2000/svg"><path d="M30 10h452c11 0 20 9 20 20v452c0 11-9 20-20 20H351.16V314.21h65.297l10.125-76.937H351.16v-66.816c0-4.3 3.797-8.098 8.102-8.098h67.32V85.422h-67.32c-46.774 0-85.04 38.266-85.04 85.035v66.816h-63.269v76.938h63.27V502H30c-11 0-20-9-20-20V30c0-11 9-20 20-20zm0 0" fill="#4267b2" fill-rule="evenodd"/><path d="M426.578 75.422h-67.32c-52.403 0-95.035 42.633-95.035 95.035v56.816h-53.274c-5.52 0-10 4.477-10 10v76.938c0 5.523 4.48 10 10 10h53.274V492H30c-5.516 0-10-4.484-10-10V30c0-5.516 4.484-10 10-10h20c5.523 0 10-4.477 10-10S55.523 0 50 0H30C13.457 0 0 13.457 0 30v452c0 16.543 13.457 30 30 30h244.223c5.523 0 10-4.477 10-10V314.21c0-5.522-4.477-10-10-10h-53.27v-56.94h53.27c5.523 0 10-4.477 10-10v-66.813c0-41.375 33.66-75.039 75.039-75.039h57.32v56.937h-57.32c-9.813 0-18.102 8.29-18.102 18.102v66.813c0 5.523 4.477 10 10 10h64.02l-7.492 56.94H351.16c-5.52 0-10 4.478-10 10V502c0 5.523 4.48 10 10 10H382c5.523 0 10-4.477 10-10s-4.477-10-10-10h-20.84V324.21h55.297a10 10 0 009.914-8.694l10.125-76.942a9.997 9.997 0 00-9.914-11.3h-65.418v-54.915h65.418c5.523 0 10-4.476 10-10V85.422c-.004-5.524-4.48-10-10.004-10zm0 0"/><path d="M482 0H130c-5.523 0-10 4.477-10 10s4.477 10 10 10h352c5.516 0 10 4.484 10 10v452c0 5.516-4.484 10-10 10h-20c-5.523 0-10 4.477-10 10s4.477 10 10 10h20c16.543 0 30-13.457 30-30V30c0-16.543-13.457-30-30-30zm-59.996 492h-.008c-5.523 0-9.996 4.477-9.996 10s4.48 10 10.004 10c5.523 0 10-4.477 10-10s-4.477-10-10-10zm-332-472c5.523 0 10-4.477 10-10s-4.477-10-10-10h-.008C84.473 0 80 4.477 80 10s4.48 10 10.004 10zm0 0"/></svg>