<svg height="512" viewBox="0 0 128 128" width="512" xmlns="http://www.w3.org/2000/svg"><path d="M102.441 40.482a54.4 54.4 0 00-76.882 0 4.106 4.106 0 01-1.658 1.01L38.854 71.4a30.292 30.292 0 013.2 13.547v22.859a4.224 4.224 0 108.448 0V94.693l13.5 27L81.1 87.5v5.9a4.311 4.311 0 108.622 0V82.358a3.38 3.38 0 013.38-3.38h1.063a3.379 3.379 0 003.376-3.378V59.349a18.462 18.462 0 011.7-7.736l4.859-10.119a4.1 4.1 0 01-1.659-1.012z" fill="#ffde3e"/><path d="M18.776 39.316a4.254 4.254 0 006.783 1.166 54.4 54.4 0 0176.882 0 4.255 4.255 0 006.783-1.166l4.551-9.105a4.256 4.256 0 00-.946-5.053 72.663 72.663 0 00-97.658 0 4.256 4.256 0 00-.946 5.053z" fill="#ef983b"/><g fill="#ef3829"><circle cx="64" cy="81.593" r="6.541"/><circle cx="47.116" cy="48.235" r="6.541"/><circle cx="80.884" cy="57.2" r="6.541"/></g><g fill="#422002"><path d="M114.005 23.862c-1.7-1.546-3.5-3.03-5.338-4.414a1.75 1.75 0 10-2.1 2.8 71.409 71.409 0 015.088 4.207 2.516 2.516 0 01.558 2.976l-4.552 9.1a2.526 2.526 0 01-1.877 1.378 2.4 2.4 0 01-2.1-.667 56.147 56.147 0 00-79.356 0 2.394 2.394 0 01-2.1.667 2.527 2.527 0 01-1.876-1.377l-4.552-9.1a2.516 2.516 0 01.558-2.976 70.952 70.952 0 0183.089-8.921 1.75 1.75 0 001.752-3.03A74.453 74.453 0 0014 23.862a6.027 6.027 0 00-1.336 7.132l4.552 9.1a6.077 6.077 0 005.431 3.346c.09 0 .175-.021.264-.025l3.107 6.212a1.75 1.75 0 003.131-1.565L26.211 42.2a5.906 5.906 0 00.584-.48 52.647 52.647 0 0174.409 0 6.05 6.05 0 00.6.518l-4.154 8.641a20.364 20.364 0 00-1.859 8.47V75.6a1.631 1.631 0 01-1.629 1.63H93.1a5.135 5.135 0 00-5.13 5.128V93.4a2.561 2.561 0 11-5.122 0v-5.9a1.75 1.75 0 00-3.316-.782L64 117.78 52.065 93.911a1.75 1.75 0 00-3.315.782v13.114a2.474 2.474 0 11-4.948 0V84.948a32.2 32.2 0 00-3.383-14.33l-1.7-3.4a1.75 1.75 0 00-3.131 1.565l1.7 3.4A28.679 28.679 0 0140.3 84.948v22.859a5.974 5.974 0 1011.948 0v-5.7l10.185 20.37a1.75 1.75 0 003.13 0l13.914-27.823A6.061 6.061 0 0091.469 93.4V82.357a1.631 1.631 0 011.63-1.628h1.063a5.136 5.136 0 005.129-5.13v-16.25a16.8 16.8 0 011.526-6.978l4.294-8.939a6.014 6.014 0 005.678-3.333l4.552-9.1a6.027 6.027 0 00-1.336-7.137z"/><path d="M33.019 55.817a1.75 1.75 0 10-3.131 1.565l2.012 4.027a1.75 1.75 0 103.131-1.565zm22.689 25.776A8.292 8.292 0 1064 73.3a8.3 8.3 0 00-8.292 8.293zM64 76.8a4.792 4.792 0 11-4.792 4.791A4.8 4.8 0 0164 76.8zM47.116 39.944a8.291 8.291 0 108.292 8.291 8.3 8.3 0 00-8.292-8.291zm0 13.082a4.791 4.791 0 114.792-4.791 4.8 4.8 0 01-4.792 4.791zM72.592 57.2a8.292 8.292 0 108.292-8.291 8.3 8.3 0 00-8.292 8.291zm13.083 0a4.792 4.792 0 11-4.791-4.791 4.8 4.8 0 014.791 4.791zm-18.981-8.382a1.75 1.75 0 001.9-2.939l-2.914-1.887a1.75 1.75 0 00-1.9 2.939zm17.987-7.164a1.756 1.756 0 00.7-.147l2.745-1.2a1.75 1.75 0 00-1.4-3.207l-2.745 1.2a1.751 1.751 0 00.7 3.354zM52.208 62.612l-2.32 3.429A1.75 1.75 0 0052.787 68l2.32-3.428a1.75 1.75 0 00-2.9-1.962zm11.409 33.916l-1.458 1.2a1.75 1.75 0 102.224 2.7l1.458-1.2a1.75 1.75 0 10-2.224-2.7zm15.2-25.874a1.75 1.75 0 00-1.912 2.931l2.111 1.377a1.75 1.75 0 101.912-2.931zm11.156-50.841a1.749 1.749 0 00.791 2.345 54.4 54.4 0 0112.168 8.066 1.75 1.75 0 002.336-2.607 57.881 57.881 0 00-12.95-8.6 1.751 1.751 0 00-2.345.796z"/></g></svg>